<svg width="267" height="72" viewBox="0 0 267 72" fill="none" xmlns="http://www.w3.org/2000/svg">
<path d="M69.326 18.8386H73.3845V43.4367H86.1471V47.1217H69.326V18.8386Z" fill="#5289F5"/>
<path d="M105.098 38.1332H91.9705C92.0643 39.9145 92.6632 41.3314 93.7659 42.3841C94.8685 43.4367 96.2916 43.9637 98.0379 43.9637C100.473 43.9637 102.718 43.2077 104.775 41.6957V45.3001C103.639 46.0561 102.512 46.5961 101.396 46.9201C100.281 47.2441 98.9717 47.4053 97.4692 47.4053C95.4126 47.4053 93.7486 46.9805 92.4771 46.1295C91.2056 45.2799 90.1881 44.1351 89.4232 42.698C88.6582 41.2609 88.2772 39.5977 88.2772 37.7069C88.2772 34.873 89.0826 32.5676 90.6918 30.7935C92.301 29.0194 94.3908 28.131 96.9612 28.131C99.4364 28.131 101.412 28.995 102.886 30.7229C104.359 32.4509 105.097 34.765 105.097 37.6666V38.1332H105.098ZM92.0513 35.9271H101.445C101.35 34.4569 100.911 33.3221 100.126 32.5258C99.3411 31.7295 98.2861 31.3321 96.9612 31.3321C95.6349 31.3321 94.5496 31.7309 93.7053 32.5258C92.8595 33.3221 92.3082 34.4554 92.0513 35.9271Z" fill="#5289F5"/>
<path d="M106.479 31.4516L113.419 24.649V28.4953H119.323V31.8159H113.419V40.9311C113.419 43.0594 114.305 44.125 116.077 44.125C117.402 44.125 118.803 43.6873 120.277 42.8089V46.2505C118.857 47.0468 117.307 47.4442 115.63 47.4442C113.938 47.4442 112.532 46.9517 111.41 45.9668C111.057 45.6701 110.767 45.3361 110.536 44.9645C110.307 44.593 110.114 44.1077 109.958 43.5073C109.802 42.9068 109.724 41.7634 109.724 40.0757V31.8159H106.477V31.4516H106.479Z" fill="#5289F5"/>
<path d="M122.022 45.7868V41.8181C123.064 42.5468 124.129 43.1372 125.217 43.5893C126.305 44.0415 127.222 44.2676 127.966 44.2676C128.737 44.2676 129.4 44.0789 129.955 43.7002C130.509 43.3229 130.787 42.8708 130.787 42.3437C130.787 41.8037 130.608 41.3559 130.248 40.9973C129.89 40.6402 129.115 40.1233 127.925 39.4479C125.543 38.126 123.985 36.9956 123.247 36.0567C122.51 35.1193 122.142 34.0969 122.142 32.9895C122.142 31.5596 122.7 30.3918 123.816 29.4874C124.931 28.5831 126.369 28.131 128.128 28.131C129.954 28.131 131.827 28.6436 133.748 29.6703V33.3149C131.557 31.993 129.765 31.3306 128.371 31.3306C127.653 31.3306 127.075 31.4833 126.636 31.7871C126.196 32.091 125.976 32.4927 125.976 32.9924C125.976 33.4258 126.175 33.8377 126.574 34.2293C126.972 34.621 127.672 35.0933 128.674 35.6463L129.993 36.3951C133.104 38.149 134.662 40.093 134.662 42.2242C134.662 43.7492 134.063 45.0005 132.866 45.9783C131.668 46.9561 130.13 47.4457 128.249 47.4457C127.139 47.4457 126.152 47.3276 125.286 47.0914C124.423 46.8553 123.334 46.4204 122.022 45.7868Z" fill="#5289F5"/>
<path d="M159.986 35.7644H148.319V47.1217H139.837V19.0618H159.986V24.6893H148.319V30.1153H159.986V35.7644Z" fill="#112B61"/>
<path d="M186.709 36.7969C186.709 38.8489 186.263 40.6777 185.37 42.2833C184.477 43.8903 183.142 45.1575 181.362 46.0892C179.583 47.0209 177.415 47.486 174.859 47.486C172.303 47.486 170.134 47.0209 168.356 46.0892C166.576 45.1575 165.244 43.8889 164.358 42.2833C163.472 40.6777 163.029 38.8489 163.029 36.7969C163.029 35.2445 163.275 33.8348 163.769 32.5661C164.263 31.2975 165.013 30.1743 166.022 29.1951C167.029 28.2173 168.271 27.4642 169.746 26.9372C171.221 26.4101 172.924 26.148 174.859 26.148C176.807 26.148 178.528 26.4144 180.023 26.9472C181.518 27.48 182.755 28.226 183.736 29.185C184.716 30.144 185.458 31.2644 185.959 32.546C186.46 33.8276 186.709 35.2445 186.709 36.7969ZM179.02 36.7969C179.02 35.1639 178.665 33.8852 177.955 32.9607C177.245 32.0362 176.213 31.574 174.86 31.574C173.521 31.574 172.496 32.0362 171.786 32.9607C171.076 33.8852 170.721 35.1639 170.721 36.7969C170.721 38.4169 171.079 39.6985 171.796 40.6431C172.514 41.5877 173.534 42.0601 174.86 42.0601C176.213 42.0601 177.245 41.5906 177.955 40.6532C178.665 39.7157 179.02 38.4298 179.02 36.7969Z" fill="#112B61"/>
<path d="M212.256 47.1217H204.952V44.1855C203.922 45.2929 202.839 46.1194 201.706 46.6652C200.573 47.2124 199.214 47.4845 197.626 47.4845C194.51 47.4845 192.492 46.5773 191.576 44.7615C190.658 42.9471 190.201 40.898 190.201 38.617V26.5095H197.505V37.645C197.505 38.7653 197.691 39.7474 198.065 40.5913C198.437 41.4351 199.248 41.857 200.497 41.857C201.569 41.857 202.416 41.5532 203.04 40.9455C203.663 40.3378 204.301 39.5617 204.952 38.617V26.5095H212.256V47.1217Z" fill="#112B61"/>
<path d="M238.999 47.1216H231.695V36.0063C231.695 34.873 231.509 33.8837 231.137 33.0399C230.764 32.196 229.95 31.7741 228.692 31.7741C228.096 31.7741 227.572 31.885 227.119 32.1082C226.666 32.3314 226.26 32.618 225.901 32.9693C225.543 33.3207 225.241 33.6576 224.997 33.9816C224.753 34.3056 224.504 34.6498 224.247 35.0141V47.1216H216.942V26.5124H224.247V29.4687C225.397 28.2404 226.55 27.3807 227.706 26.8868C228.862 26.3943 230.151 26.148 231.571 26.148C236.521 26.148 238.998 29.1044 238.998 35.0156V47.1216H238.999Z" fill="#112B61"/>
<path d="M265.236 47.1217H257.912V45.2598C257.141 45.9078 256.326 46.4406 255.467 46.8596C254.608 47.2772 253.42 47.4874 251.907 47.4874C250.406 47.4874 248.931 47.1159 247.483 46.3743C246.035 45.6327 244.845 44.475 243.912 42.9025C242.979 41.33 242.512 39.35 242.512 36.961C242.512 35.0847 242.865 33.3265 243.567 31.6878C244.27 30.0476 245.373 28.7156 246.875 27.6889C248.376 26.6636 250.216 26.1495 252.394 26.1495C253.747 26.1495 254.842 26.2978 255.682 26.5945C256.521 26.8911 257.265 27.2698 257.915 27.7277V19.0633H265.239V47.1217H265.236ZM257.912 40.5625V32.6871C257.06 32.2148 256.394 31.8778 255.913 31.6748C255.432 31.4718 254.868 31.371 254.219 31.371C253.068 31.371 252.111 31.8562 251.348 32.8282C250.583 33.8002 250.202 35.1236 250.202 36.7969C250.202 38.6185 250.605 39.9447 251.41 40.7756C252.215 41.605 253.152 42.0212 254.22 42.0212C255.099 42.0212 255.809 41.883 256.35 41.6065C256.89 41.3286 257.411 40.9815 257.912 40.5625Z" fill="#112B61"/>
<path d="M46.2313 13.0325C42.2248 9.92934 37.2009 8.07606 31.7469 8.07606C26.2957 8.07606 21.2704 9.93078 17.2639 13.034L12.4276 8.2071C17.6882 3.88998 24.4195 1.2951 31.7469 1.2951C39.0742 1.2951 45.8055 3.88998 51.0661 8.2071L46.2313 13.0325Z" fill="#2757C3"/>
<path d="M8.2104 12.4134L13.0482 17.2402C9.93797 21.2377 8.07907 26.2503 8.07907 31.6906C8.07907 37.131 9.93652 42.1436 13.0482 46.141L8.2104 50.9679C3.88356 45.7177 1.28284 39.003 1.28284 31.6906C1.28284 24.3798 3.885 17.6636 8.2104 12.4134Z" fill="#5289F5"/>
<path d="M50.4469 46.141C53.5571 42.1436 55.4145 37.1309 55.4145 31.6906C55.4145 26.2503 53.5571 21.2377 50.4469 17.2402L55.2846 12.4148C59.61 17.665 62.2122 24.3812 62.2122 31.6921C62.2122 39.003 59.6115 45.7191 55.2846 50.9694L50.4469 46.141Z" fill="#112B61"/>
<path d="M12.4276 55.1741L17.2639 50.3473C21.2704 53.4505 26.2943 55.3052 31.7469 55.3052C37.1994 55.3052 42.2248 53.4505 46.2313 50.3473L51.0676 55.1741C48.9359 56.9223 46.6267 58.3393 44.2078 59.4236V71.0242L35.5628 61.8485C27.4879 62.8666 19.0911 60.6418 12.4276 55.1741Z" fill="#A7C4F8"/>
<path d="M15.2404 24.842C15.9433 24.4373 16.8424 24.6778 17.248 25.3791C17.6535 26.0804 17.4125 26.9775 16.7097 27.3821C16.0068 27.7868 15.1077 27.5463 14.7021 26.845C14.2966 26.1437 14.5376 25.2466 15.2404 24.842ZM23.5983 12.5458C24.3011 12.1412 25.2003 12.3817 25.6058 13.0829C26.0114 13.7842 25.7703 14.6813 25.0675 15.086C24.3646 15.4906 23.4655 15.2501 23.0599 14.5489C22.6544 13.8476 22.8954 12.9519 23.5983 12.5458ZM38.6282 19.5644C39.803 18.8876 41.304 19.2893 41.9823 20.4615C42.6606 21.6337 42.258 23.1313 41.0832 23.8081C39.9084 24.4849 38.4059 24.0831 37.7291 22.9109C37.0507 21.7402 37.4534 20.2412 38.6282 19.5644ZM50.2189 28.6969C51.3937 28.0201 52.8947 28.4218 53.573 29.594C54.2513 30.7662 53.8486 32.2638 52.6738 32.9406C51.499 33.6174 49.9966 33.2156 49.3198 32.0434C48.6414 30.8713 49.0441 29.3737 50.2189 28.6969ZM11.82 31.1478C12.9948 30.471 14.4957 30.8727 15.1741 32.0449C15.8524 33.217 15.4497 34.7146 14.2749 35.3914C13.1001 36.0682 11.5977 35.6665 10.9208 34.4943C10.2439 33.3221 10.6466 31.8246 11.82 31.1478ZM34.2581 18.9653C34.6824 18.7205 35.2265 18.866 35.4718 19.2893C35.7172 19.7141 35.5714 20.2556 35.1471 20.5004C34.7213 20.7452 34.1787 20.5997 33.9333 20.1764C33.688 19.753 33.8337 19.2116 34.2581 18.9653ZM16.4196 38.3622C16.8439 38.1174 17.388 38.2628 17.6333 38.6862C17.8787 39.111 17.7329 39.6524 17.3086 39.8972C16.8829 40.142 16.3402 39.9966 16.0948 39.5732C15.8495 39.1498 15.9953 38.607 16.4196 38.3622ZM36.8083 13.201C37.5111 12.7964 38.4103 13.0369 38.8158 13.7381C39.2214 14.4394 38.9804 15.3365 38.2775 15.7412C37.5746 16.1458 36.6755 15.9053 36.2699 15.2041C35.8644 14.5028 36.1054 13.6057 36.8083 13.201ZM48.2546 38.4255C47.5518 38.8302 46.6541 38.5897 46.2471 37.8884C45.8415 37.1871 46.0826 36.29 46.7854 35.8854C47.4883 35.4807 48.3874 35.7212 48.793 36.4225C49.1985 37.1238 48.9575 38.0209 48.2546 38.4255ZM48.2546 23.9405C47.5518 24.3452 46.6541 24.1047 46.2471 23.4034C45.8415 22.7021 46.0826 21.805 46.7854 21.4004C47.4883 20.9957 48.3874 21.2362 48.793 21.9375C49.1985 22.6388 48.9575 23.5359 48.2546 23.9405ZM39.8968 50.7217C39.194 51.1263 38.2948 50.8858 37.8893 50.1846C37.4837 49.4833 37.7247 48.5862 38.4276 48.1815C39.1304 47.7769 40.0296 48.0174 40.4351 48.7186C40.8407 49.4199 40.5997 50.317 39.8968 50.7217ZM24.8669 43.7031C23.6921 44.3799 22.1911 43.9782 21.5128 42.806C20.8345 41.6338 21.2371 40.1362 22.4119 39.4594C23.5867 38.7826 25.0891 39.1844 25.766 40.3566C26.4443 41.5273 26.0417 43.0263 24.8669 43.7031ZM29.237 44.3022C28.8127 44.547 28.2686 44.4015 28.0232 43.9782C27.7779 43.5534 27.9237 43.0119 28.348 42.7671C28.7737 42.5223 29.3164 42.6678 29.5617 43.0911C29.8071 43.5145 29.6628 44.0574 29.237 44.3022ZM19.0852 47.211C18.6609 47.4558 18.1168 47.3103 17.8715 46.887C17.6261 46.4622 17.7719 45.9207 18.1962 45.6759C18.622 45.4311 19.1646 45.5766 19.41 45.9999C19.6568 46.4247 19.511 46.9662 19.0852 47.211ZM26.6882 50.0665C25.9854 50.4711 25.0862 50.2306 24.6807 49.5294C24.2751 48.8281 24.5162 47.9324 25.219 47.5263C25.9219 47.1217 26.821 47.3622 27.2266 48.0634C27.6307 48.7647 27.3911 49.6618 26.6882 50.0665ZM34.0416 26.6823L38.8404 29.4471C39.0525 29.2052 39.3065 28.9935 39.6009 28.825C41.0427 27.9942 42.8872 28.4866 43.72 29.9252C44.5527 31.3638 44.0577 33.2041 42.6159 34.035C42.3215 34.2049 42.0112 34.3186 41.6951 34.3806V39.4234C42.3215 39.5775 42.8872 39.9764 43.235 40.5769C43.9134 41.749 43.5107 43.2466 42.3359 43.9234C41.3372 44.498 40.1018 44.295 39.3368 43.5001L35.1341 45.9207C35.3217 46.7458 34.9624 47.63 34.1888 48.0764C33.2377 48.6236 32.0225 48.2996 31.474 47.3506C30.9256 46.4017 31.2503 45.1892 32.2014 44.642C32.975 44.197 33.9218 44.3281 34.5453 44.9026L38.748 42.482C38.4406 41.4236 38.8808 40.2543 39.8795 39.6798C40.0859 39.5617 40.3009 39.4767 40.5203 39.422V34.3791C39.6976 34.2164 38.9486 33.7138 38.4954 32.9334C38.0437 32.1514 37.9831 31.2529 38.2515 30.4609L33.4527 27.6961C33.3459 27.7954 33.2261 27.8833 33.0948 27.9596C32.1437 28.5068 30.9285 28.1828 30.3801 27.2338C29.8316 26.2849 30.1564 25.0724 31.1075 24.5252C32.0586 23.978 33.2738 24.302 33.8222 25.2509C34.0863 25.7017 34.1498 26.2114 34.0416 26.6823ZM29.4535 36.5852L24.6562 33.8204C24.444 34.0623 24.19 34.274 23.8956 34.4439C22.4538 35.2748 20.6093 34.7809 19.7766 33.3423C18.9438 31.9037 19.4388 30.0634 20.8806 29.234C21.1751 29.0641 21.4854 28.9503 21.8014 28.8869V23.8441C21.1751 23.69 20.6093 23.2911 20.2615 22.6906C19.5832 21.5185 19.9858 20.0209 21.1606 19.3441C22.1593 18.7695 23.3948 18.9725 24.1597 19.7674L28.3624 17.3468C28.1748 16.5217 28.5342 15.6361 29.3077 15.1911C30.2588 14.6439 31.474 14.9679 32.0225 15.9169C32.5709 16.8644 32.2462 18.0783 31.2951 18.6255C30.5215 19.0705 29.5733 18.9394 28.9513 18.3634L24.7485 20.7841C25.0559 21.841 24.6158 23.0117 23.617 23.5863C23.4106 23.7044 23.1956 23.7908 22.9762 23.8441V28.8869C23.7989 29.0497 24.5479 29.5522 25.0011 30.3342C25.4528 31.1146 25.5134 32.0146 25.245 32.8066L30.0438 35.5714C30.1506 35.4735 30.2704 35.3842 30.4017 35.3079C31.3528 34.7607 32.568 35.0847 33.1165 36.0337C33.6649 36.9812 33.3402 38.1951 32.3891 38.7423C31.438 39.2895 30.2227 38.9655 29.6743 38.0166C29.4102 37.5658 29.3467 37.0561 29.4535 36.5852Z" fill="#2757C3"/>
</svg>
